<svg width="23" height="26" viewBox="0 0 23 26" fill="none" xmlns="http://www.w3.org/2000/svg">
<path d="M4.81731 23.7417V24.0582H4.11206V25.3781H3.73493V23.7417H4.81731ZM8.03653 25.9917V23.7417H8.41579V24.0123H8.43816C8.45805 23.9726 8.4861 23.9303 8.52232 23.8856C8.55855 23.8401 8.60755 23.8014 8.66934 23.7694C8.73113 23.7368 8.80997 23.7204 8.90585 23.7204C9.03227 23.7204 9.14626 23.7528 9.24782 23.8174C9.35009 23.8813 9.43106 23.9761 9.49072 24.1018C9.55109 24.2268 9.58127 24.3802 9.58127 24.5621C9.58127 24.7417 9.5518 24.8944 9.49285 25.0202C9.4339 25.1459 9.35365 25.2417 9.25208 25.3078C9.15052 25.3739 9.03546 25.4069 8.90691 25.4069C8.81316 25.4069 8.73539 25.3913 8.6736 25.36C8.61181 25.3288 8.5621 25.2911 8.52445 25.2471C8.48752 25.2023 8.45876 25.1601 8.43816 25.1203H8.42218V25.9917H8.03653ZM8.41472 24.5599C8.41472 24.6658 8.42964 24.7584 8.45947 24.838C8.49001 24.9175 8.53369 24.9797 8.59051 25.0244C8.64803 25.0685 8.71764 25.0905 8.79931 25.0905C8.88454 25.0905 8.95592 25.0677 9.01345 25.0223C9.07097 24.9761 9.1143 24.9133 9.14342 24.8337C9.17325 24.7535 9.18816 24.6622 9.18816 24.5599C9.18816 24.4584 9.1736 24.3682 9.14448 24.2893C9.11536 24.2105 9.07204 24.1487 9.01451 24.104C8.95698 24.0592 8.88525 24.0368 8.79931 24.0368C8.71693 24.0368 8.64697 24.0585 8.58944 24.1018C8.53191 24.1452 8.48823 24.2059 8.4584 24.284C8.42928 24.3621 8.41472 24.4541 8.41472 24.5599ZM13.1933 24.8561L13.8485 23.7417H14.2448V25.3781H13.872V24.2627L13.2189 25.3781H12.8215V23.7417H13.1933V24.8561ZM18.2934 25.9342V23.1963H18.6801V25.9342H18.2934ZM18.2934 25.4101C18.1734 25.4101 18.0636 25.3898 17.9642 25.3493C17.8648 25.3089 17.7788 25.2513 17.7064 25.1768C17.6347 25.1022 17.5789 25.0134 17.5391 24.9104C17.5001 24.8067 17.4806 24.692 17.4806 24.5663C17.4806 24.4406 17.5001 24.3259 17.5391 24.2222C17.5789 24.1185 17.6347 24.0294 17.7064 23.9548C17.7788 23.8795 17.8648 23.8216 17.9642 23.7812C18.0636 23.7407 18.1734 23.7204 18.2934 23.7204H18.3754V25.4101H18.2934ZM18.2934 25.099H18.3413V24.0315H18.2934C18.2252 24.0315 18.1649 24.0457 18.1123 24.0741C18.0605 24.1018 18.0168 24.1405 17.9813 24.1903C17.9465 24.2393 17.9198 24.2961 17.9014 24.3607C17.8836 24.4246 17.8747 24.4932 17.8747 24.5663C17.8747 24.6636 17.8907 24.7528 17.9227 24.8337C17.9546 24.914 18.0015 24.9783 18.0633 25.0266C18.1258 25.0748 18.2025 25.099 18.2934 25.099ZM18.6801 25.4101H18.5981V23.7204H18.6801C18.8002 23.7204 18.9099 23.7407 19.0093 23.7812C19.1087 23.8216 19.1943 23.8795 19.2661 23.9548C19.3385 24.0294 19.3943 24.1185 19.4333 24.2222C19.4731 24.3259 19.493 24.4406 19.493 24.5663C19.493 24.692 19.4731 24.8067 19.4333 24.9104C19.3943 25.0134 19.3385 25.1022 19.2661 25.1768C19.1943 25.2513 19.1087 25.3089 19.0093 25.3493C18.9099 25.3898 18.8002 25.4101 18.6801 25.4101ZM18.6801 25.099C18.749 25.099 18.8094 25.0851 18.8612 25.0574C18.9131 25.0297 18.9564 24.9914 18.9912 24.9424C19.0267 24.8934 19.0534 24.8369 19.0711 24.773C19.0889 24.7084 19.0977 24.6395 19.0977 24.5663C19.0977 24.469 19.0821 24.3799 19.0509 24.2989C19.0196 24.218 18.9727 24.1533 18.9102 24.105C18.8485 24.056 18.7717 24.0315 18.6801 24.0315H18.6322V25.099H18.6801Z" fill="white"/>
<path d="M19.2258 9.34579C19.089 9.42153 18.9483 9.49263 18.8162 9.5743C18.6543 9.67459 18.5066 9.79477 18.3394 9.88702C17.8702 10.1452 17.3958 10.3952 16.9204 10.6436C16.7864 10.7135 16.6287 10.7516 16.5052 10.8328C16.4384 10.8764 16.3896 10.9818 16.3939 11.0562C16.3963 11.0964 16.5331 11.1684 16.5999 11.1608C16.8915 11.1286 17.1804 11.0727 17.4928 11.0567C16.9881 11.2949 16.4895 11.5458 15.9753 11.7667C15.7045 11.8831 15.401 11.9377 15.1207 12.0388C15.045 12.0663 14.999 12.1607 14.9398 12.2246C15.0166 12.2783 15.088 12.3697 15.1709 12.3786C15.3759 12.4011 15.5866 12.3858 15.7509 12.3858C15.3068 12.6338 14.7637 12.7815 14.2026 12.8775C13.8224 12.9427 13.8059 12.9601 14.0156 13.2449C14.0203 13.2512 13.9811 13.3003 13.9588 13.302C13.7798 13.3185 13.598 13.3189 13.4214 13.3456C13.3461 13.357 13.2296 13.4133 13.223 13.4598C13.214 13.5203 13.277 13.6164 13.3409 13.6545C13.6747 13.8525 14.0298 14.0222 14.3556 14.23C14.6269 14.4026 14.8646 14.6163 15.1221 14.8072C15.3324 14.9633 15.5535 15.1076 15.7618 15.2655C15.8627 15.3421 15.945 15.4381 16.0345 15.5262C16.7239 16.2015 17.2689 16.9565 17.6112 17.8223C17.6425 17.901 17.6605 17.9843 17.6785 18.0664C17.7007 18.1693 17.7159 18.2738 17.7343 18.3775C17.6553 18.2941 17.5842 18.2031 17.4957 18.1291C17.2064 17.887 16.9147 17.6467 16.6136 17.4169C16.5696 17.3834 16.4479 17.3847 16.3991 17.416C16.3551 17.4448 16.338 17.5392 16.3489 17.5988C16.4995 18.4219 16.5331 19.2437 16.3025 20.0587C16.1766 20.5039 16.0213 20.9427 15.8773 21.3836C15.8674 21.415 15.8414 21.442 15.82 21.4751C15.7192 20.9711 15.6373 20.4747 15.5151 19.9868C15.446 19.7096 15.3205 19.4422 15.1969 19.1789C15.1681 19.1172 15.0483 19.0719 14.9621 19.0575C14.9309 19.0524 14.8451 19.1569 14.8371 19.217C14.7377 19.961 14.4152 20.6351 14.0128 21.2787C13.7595 21.6845 13.4607 22.0675 13.1813 22.4606C13.1652 22.483 13.1425 22.5017 13.1643 22.4792C13.2055 21.941 13.2509 21.3633 13.2945 20.7857C13.3082 20.605 13.3381 20.4226 13.3191 20.2445C13.3115 20.1713 13.1941 20.1078 13.1269 20.0397C13.0592 20.0972 12.9702 20.1446 12.928 20.2144C12.5999 20.7569 12.2339 21.2745 11.7249 21.6981C11.6028 21.8 11.4531 21.8762 11.3177 21.963C11.3864 21.7645 11.4707 21.5559 11.5298 21.3418C11.5957 21.1048 11.6515 20.864 11.6856 20.6219C11.6965 20.5454 11.6236 20.4595 11.5895 20.3778C11.4924 20.4328 11.367 20.4692 11.3045 20.5466C11.1681 20.715 11.0673 20.9059 10.9456 21.0845C10.8817 21.178 10.8154 21.1975 10.705 21.1077C10.4124 20.8708 10.0341 20.8056 9.66149 20.773C9.56727 20.7646 9.4328 20.9072 9.35515 21.0049C9.2008 21.1987 9.07343 21.4095 8.93944 21.6067C8.95506 21.2203 8.97921 20.856 8.98205 20.4916C8.98394 20.2584 8.89398 20.1979 8.63026 20.2144C8.52893 20.2208 8.42761 20.2326 8.32675 20.2462C8.27988 20.2525 8.23443 20.2678 8.18802 20.2788C8.21075 20.236 8.2207 20.1785 8.2581 20.1522C8.43992 20.0261 8.6312 19.9106 8.81491 19.7866C8.89588 19.732 9.01377 19.6745 9.0294 19.6034C9.04076 19.5505 8.9276 19.4515 8.84616 19.413C8.71974 19.3529 8.7491 19.3038 8.82864 19.2454C9.108 19.0414 9.34332 19.0871 9.47684 19.3812C9.53839 19.5162 9.57011 19.6626 9.61131 19.8048C9.67002 20.0071 9.78602 20.0714 9.956 19.9436C10.2491 19.7231 10.5441 19.4921 10.7765 19.2225C11.4423 18.4498 11.644 17.5582 11.5119 16.6019C11.4891 16.4368 11.4352 16.2705 11.3622 16.1173C11.3286 16.0471 11.2136 16.0077 11.1354 15.9548C11.0905 16.0242 11.0033 16.0953 11.0071 16.163C11.0355 16.7237 10.9555 17.2671 10.7098 17.7846C10.6378 17.9357 10.5379 18.0808 10.4233 18.209C10.3883 18.2484 10.2439 18.2522 10.1809 18.2217C9.80023 18.0351 9.40392 17.9014 8.96832 17.8629C8.78272 17.8464 8.59995 17.7897 8.41577 17.7888C8.33196 17.7884 8.22117 17.8625 8.16861 17.931C8.0029 18.1451 7.85896 18.3728 7.69419 18.6132C7.73396 18.2759 7.79125 17.9805 7.79883 17.6839C7.8083 17.2967 7.60139 17.1858 7.19277 17.3259C7.14448 17.3424 7.08955 17.3449 7.03794 17.3542C7.05783 17.3043 7.06115 17.2336 7.10092 17.2078C7.25669 17.105 7.42951 17.0229 7.58481 16.9196C7.66578 16.8655 7.72307 16.783 7.79125 16.7136C7.72165 16.6598 7.64779 16.6099 7.58481 16.5506C7.56398 16.5308 7.55782 16.4622 7.56635 16.4588C7.71786 16.3975 7.86937 16.3323 8.02941 16.298C8.0545 16.2925 8.13168 16.4317 8.16293 16.5109C8.23253 16.6861 8.29314 16.8642 8.34759 17.0436C8.39352 17.1964 8.53319 17.251 8.65298 17.1905C8.94607 17.0428 9.26851 16.926 9.42996 16.6175C9.60136 16.2904 9.60231 15.9798 9.46832 15.6442C9.3632 15.3814 9.14493 15.2147 8.93612 15.0315C8.47069 14.6231 7.86653 14.4653 7.269 14.3146C6.25718 14.0599 5.21883 13.9626 4.1696 14.04C3.49868 14.0895 2.8306 14.1822 2.21981 14.4577C2.00438 14.555 1.79463 14.6747 1.61518 14.8174C1.50959 14.9011 1.43431 15.045 1.40922 15.1715C1.38128 15.3141 1.30695 15.3146 1.23829 15.2393C1.09767 15.0856 0.894544 14.9172 0.88034 14.7441C0.841041 14.2715 0.769545 13.8106 1.10145 13.3384C1.53469 12.7218 2.0754 12.2885 2.83723 12.0833C3.32255 11.9525 3.82822 11.8831 4.32206 11.7756C5.65254 11.4853 6.91531 11.0503 7.99437 10.2772C8.36179 10.014 8.67713 9.68728 8.98726 9.36695C9.35989 8.98229 9.59237 8.52357 9.74719 8.03439C9.79123 7.89517 9.88214 7.81265 10.0464 7.77753C10.6137 7.65608 11.1861 7.54732 11.742 7.3916C12.2756 7.24222 12.8021 7.06237 13.3116 6.85629C14.2628 6.47078 15.2116 6.07808 16.1377 5.6473C16.866 5.30876 17.5577 4.90718 18.267 4.53648C18.5643 4.38118 18.8711 4.23984 19.1638 4.07819C19.4985 3.89369 19.8314 3.70411 20.1495 3.49803C20.9762 2.9623 21.7949 2.41599 22.6168 1.87391C22.6296 1.86544 22.6415 1.85529 22.6561 1.85063C22.7177 1.83032 22.7797 1.81128 22.8418 1.79224C22.8176 1.84259 22.8043 1.90184 22.7669 1.94246C22.649 2.06983 22.5179 2.18748 22.4 2.31443C22.3195 2.40075 22.2523 2.49681 22.1789 2.58864C22.016 2.79176 21.8583 2.99869 21.6874 3.19631C21.5885 3.31056 21.4677 3.40958 21.3579 3.51665C21.2608 3.61101 21.1647 3.7058 21.0695 3.80144C20.7319 4.14082 20.3976 4.48274 20.0572 4.82C19.8404 5.03497 19.6145 5.24233 19.3929 5.45349C19.2992 5.54235 19.1898 5.62275 19.1183 5.72431C19.0729 5.78906 19.0842 5.88554 19.07 5.96806C19.1747 5.97779 19.2921 6.01842 19.3816 5.98964C19.4914 5.95367 19.5719 5.85169 19.6756 5.79287C20.24 5.47465 20.8162 5.1725 21.3706 4.84116C21.6642 4.66597 21.9218 4.44212 22.2314 4.27073C21.8853 4.64016 21.5241 4.999 21.1959 5.3807C20.6656 5.99726 20.0582 6.54526 19.4052 7.05518C19.2343 7.18848 19.0596 7.32558 18.8622 7.42122C18.6879 7.50585 18.5894 7.62053 18.6619 7.76695C18.7447 7.93368 18.9313 7.8465 19.0568 7.79657C19.543 7.60318 20.0222 7.39456 20.5042 7.19271C20.553 7.1724 20.6046 7.15801 20.6552 7.14193C20.7277 7.11908 20.8006 7.09792 20.8735 7.07591C20.82 7.13473 20.775 7.20244 20.712 7.25111C20.4772 7.43264 20.2234 7.59599 20.0009 7.78853C19.2997 8.39408 18.5288 8.91669 17.6979 9.37033C17.6846 9.37752 17.6737 9.39107 17.66 9.39488C17.4947 9.44058 17.3375 9.52606 17.4412 9.68686C17.4829 9.75161 17.7073 9.7698 17.8252 9.73891C18.2864 9.61788 18.7386 9.46851 19.1945 9.32971C19.2035 9.33521 19.2144 9.34029 19.2258 9.34579ZM1.15827 14.2114C1.15827 14.3239 1.15212 14.4369 1.16111 14.5491C1.1649 14.5982 1.19852 14.6451 1.21888 14.6934C1.27001 14.6612 1.32636 14.6337 1.37181 14.596C1.59814 14.4077 1.82209 14.2165 2.04652 14.026C2.09624 13.9841 2.14406 13.9401 2.19235 13.8974C2.1289 13.8686 2.06546 13.8403 2.00248 13.8111C1.96319 13.7929 1.92436 13.7738 1.88554 13.7552C2.01385 13.6744 2.18193 13.5026 2.2629 13.5309C2.46744 13.602 2.57019 13.5047 2.70087 13.4281C2.89736 13.3134 3.09481 13.1992 3.28656 13.0786C3.34764 13.04 3.39262 12.9816 3.44471 12.9326C3.37605 12.9156 3.3074 12.8979 3.23827 12.8818C3.1966 12.872 3.15446 12.864 3.1128 12.8555C3.13742 12.8225 3.15399 12.7773 3.18855 12.7586C3.43713 12.6249 3.69139 12.4997 3.93854 12.3642C4.00436 12.3283 4.05171 12.2652 4.1071 12.2149C4.02188 12.2043 3.92529 12.1649 3.85284 12.1874C3.32065 12.3503 2.75911 12.4709 2.27237 12.7108C1.63506 13.0231 1.11992 13.4696 1.15827 14.2114Z" fill="white"/>
<path d="M16.4665 2.34774C16.3514 2.59402 16.2832 2.80391 16.1625 2.98545C15.7903 3.54699 15.4106 4.10515 15.0091 4.64935C14.8216 4.90325 14.5678 5.11737 14.3609 5.36069C14.2785 5.4576 14.2411 5.58455 14.1829 5.69796C14.3112 5.7225 14.439 5.74874 14.5678 5.7699C14.6052 5.77624 14.6459 5.76778 14.7004 5.80036C14.4641 5.89558 14.2288 5.99291 13.9916 6.086C13.439 6.30267 12.8988 6.55233 12.3292 6.72499C11.4244 6.9992 10.5276 7.31869 9.55225 7.3572C9.48786 7.35974 9.38796 7.43549 9.37091 7.49304C9.2014 8.0567 8.99402 8.60639 8.5944 9.07611C8.16401 9.58179 7.65407 10.013 7.02387 10.3215C6.75967 10.451 6.5021 10.5902 6.2128 10.7396C6.51535 10.3634 6.82359 10.0456 7.04944 9.68632C7.51392 8.94746 7.77386 8.16037 7.54328 7.29923C7.5196 7.21078 7.49356 7.11769 7.50114 7.02924C7.50635 6.96915 7.5518 6.88579 7.6072 6.85871C8.13181 6.60565 8.67916 6.3873 9.18767 6.11097C9.87706 5.73647 10.5466 5.33149 11.2066 4.91637C11.5428 4.7052 11.8453 4.44961 12.1512 4.20291C12.7421 3.72684 13.3325 3.24951 13.9078 2.75821C14.172 2.53266 14.3997 2.27326 14.6441 2.02909C14.8112 1.86279 14.9793 1.69733 15.1459 1.5306C15.4878 1.18741 15.8339 0.847606 16.1682 0.498492C16.3263 0.333456 16.4603 0.150225 16.6521 0C16.3571 0.595397 16.0825 1.19968 15.7605 1.78323C15.4741 2.3033 15.1294 2.79799 14.8273 3.31129C14.7837 3.38577 14.832 3.50341 14.8382 3.60074C14.9551 3.58677 15.1147 3.61132 15.1815 3.55207C15.6014 3.17968 16.002 2.78783 16.4665 2.34774Z" fill="white"/>
</svg>
