<svg width="1464" height="1400" viewBox="0 0 1464 1400" fill="none" xmlns="http://www.w3.org/2000/svg">
<path d="M1223.12 571.594C1214.01 576.363 1204.65 580.84 1195.86 585.982C1185.09 592.297 1175.26 599.863 1164.13 605.672C1132.91 621.924 1101.34 637.671 1069.71 653.311C1060.79 657.707 1050.3 660.105 1042.07 665.221C1037.63 667.965 1034.39 674.6 1034.67 679.289C1034.83 681.82 1043.93 686.35 1048.37 685.87C1067.78 683.845 1087 680.328 1107.8 679.316C1074.21 694.316 1041.03 710.116 1006.82 724.024C988.794 731.351 968.597 734.788 949.944 741.156C944.903 742.888 941.847 748.83 937.909 752.853C943.013 756.237 947.771 761.992 953.284 762.551C966.927 763.963 980.948 763.004 991.881 763.004C962.327 778.618 926.188 787.916 888.851 793.964C863.55 798.068 862.448 799.16 876.406 817.091C876.721 817.491 874.105 820.582 872.625 820.688C860.715 821.727 848.616 821.754 836.863 823.433C831.854 824.152 824.103 827.696 823.662 830.627C823.063 834.437 827.254 840.485 831.507 842.883C853.72 855.352 877.351 866.036 899.028 879.118C917.082 889.989 932.899 903.444 950.039 915.461C964.028 925.292 978.743 934.378 992.606 944.316C999.317 949.139 1004.8 955.187 1010.75 960.729C1056.63 1003.25 1092.89 1050.79 1115.67 1105.3C1117.75 1110.25 1118.95 1115.5 1120.15 1120.67C1121.63 1127.15 1122.64 1133.73 1123.87 1140.26C1118.61 1135.01 1113.88 1129.28 1107.99 1124.62C1088.74 1109.38 1069.33 1094.24 1049.29 1079.77C1046.36 1077.67 1038.26 1077.75 1035.02 1079.72C1032.08 1081.53 1030.95 1087.47 1031.68 1091.23C1041.69 1143.05 1043.93 1194.8 1028.59 1246.11C1020.21 1274.14 1009.87 1301.77 1000.29 1329.53C999.632 1331.51 997.899 1333.21 996.481 1335.29C989.77 1303.56 984.32 1272.3 976.191 1241.58C971.59 1224.13 963.241 1207.29 955.017 1190.72C953.095 1186.83 945.124 1183.98 939.389 1183.07C937.31 1182.75 931.607 1189.33 931.071 1193.12C924.455 1239.96 902.998 1282.4 876.216 1322.93C859.36 1348.48 839.479 1372.59 820.889 1397.34C819.818 1398.76 818.305 1399.93 819.755 1398.52C822.496 1364.62 825.521 1328.26 828.419 1291.89C829.333 1280.51 831.318 1269.03 830.058 1257.81C829.553 1253.2 821.74 1249.2 817.266 1244.91C812.76 1248.54 806.836 1251.52 804.032 1255.92C782.197 1290.07 757.842 1322.66 723.971 1349.33C715.842 1355.75 705.886 1360.55 696.875 1366.01C701.443 1353.51 707.052 1340.38 710.99 1326.9C715.37 1311.98 719.088 1296.82 721.356 1281.57C722.081 1276.75 717.229 1271.34 714.96 1266.2C708.501 1269.67 700.151 1271.96 695.992 1276.83C686.918 1287.44 680.207 1299.45 672.11 1310.7C667.856 1316.59 663.445 1317.81 656.104 1312.16C636.632 1297.24 611.457 1293.14 586.661 1291.09C580.391 1290.55 571.443 1299.53 566.275 1305.69C556.004 1317.89 547.528 1331.16 538.612 1343.58C539.651 1319.25 541.258 1296.31 541.447 1273.37C541.573 1258.69 535.587 1254.88 518.037 1255.92C511.294 1256.32 504.552 1257.06 497.841 1257.92C494.721 1258.31 491.697 1259.27 488.609 1259.97C490.121 1257.28 490.783 1253.65 493.272 1252C505.371 1244.06 518.1 1236.79 530.325 1228.98C535.713 1225.54 543.558 1221.92 544.598 1217.44C545.354 1214.11 537.824 1207.88 532.405 1205.45C523.992 1201.67 525.945 1198.58 531.239 1194.9C549.828 1182.06 565.488 1184.94 574.373 1203.45C578.469 1211.95 580.58 1221.17 583.321 1230.13C587.228 1242.86 594.947 1246.91 606.259 1238.86C625.762 1224.98 645.391 1210.44 660.861 1193.46C705.161 1144.81 718.583 1088.67 709.793 1028.46C708.28 1018.07 704.689 1007.6 699.836 997.95C697.599 993.527 689.943 991.049 684.744 987.719C681.751 992.089 675.954 996.565 676.206 1000.83C678.096 1036.13 672.771 1070.34 656.419 1102.93C651.63 1112.44 644.982 1121.58 637.357 1129.65C635.025 1132.13 625.415 1132.37 621.225 1130.45C595.893 1118.7 569.521 1110.28 540.534 1107.86C528.183 1106.82 516.02 1103.25 503.764 1103.19C498.187 1103.17 490.814 1107.83 487.317 1112.15C476.289 1125.63 466.711 1139.96 455.746 1155.1C458.393 1133.86 462.205 1115.26 462.71 1096.59C463.34 1072.21 449.571 1065.23 422.38 1074.05C419.166 1075.08 415.511 1075.24 412.077 1075.83C413.4 1072.69 413.621 1068.24 416.267 1066.61C426.633 1060.14 438.133 1054.97 448.468 1048.47C453.856 1045.06 457.668 1039.86 462.205 1035.49C457.574 1032.11 452.659 1028.96 448.468 1025.23C447.082 1023.98 446.672 1019.67 447.239 1019.45C457.322 1015.59 467.404 1011.49 478.054 1009.33C479.724 1008.98 484.859 1017.75 486.939 1022.73C491.571 1033.76 495.603 1044.98 499.227 1056.27C502.283 1065.89 511.578 1069.33 519.549 1065.52C539.053 1056.22 560.509 1048.87 571.254 1029.44C582.659 1008.85 582.722 989.291 573.806 968.162C566.811 951.617 552.286 941.119 538.391 929.582C507.419 903.871 467.215 893.932 427.452 884.447C360.121 868.407 291.024 862.279 221.203 867.155C176.557 870.273 132.099 876.108 91.4543 893.453C77.1183 899.581 63.1603 907.121 51.2189 916.1C44.1927 921.376 39.1831 930.435 37.5132 938.401C35.6542 947.38 30.7075 947.407 26.1389 942.664C16.7811 932.992 3.26435 922.388 2.31912 911.491C-0.29602 881.729 -5.05374 852.714 17.0332 822.98C45.8627 784.159 81.8444 756.876 132.54 743.954C164.836 735.721 198.486 731.351 231.349 724.584C319.885 706.306 403.916 678.916 475.722 630.237C500.172 613.665 521.156 593.096 541.794 572.926C566.59 548.707 582.061 519.825 592.364 489.025C595.294 480.259 601.343 475.063 612.276 472.852C650.023 465.205 688.115 458.357 725.106 448.552C760.615 439.147 795.651 427.824 829.554 414.848C892.853 390.575 955.994 365.85 1017.62 338.726C1066.08 317.411 1112.11 292.126 1159.31 268.786C1179.1 259.008 1199.52 250.109 1218.99 239.931C1241.26 228.314 1263.41 216.377 1284.59 203.402C1339.6 169.67 1394.08 135.273 1448.77 101.142C1449.62 100.609 1450.41 99.97 1451.39 99.6769C1455.49 98.398 1459.61 97.199 1463.74 96C1462.13 99.1706 1461.25 102.901 1458.76 105.459C1450.92 113.478 1442.19 120.885 1434.34 128.879C1428.99 134.314 1424.51 140.362 1419.63 146.144C1408.79 158.933 1398.3 171.962 1386.92 184.405C1380.34 191.598 1372.31 197.833 1365 204.574C1358.54 210.516 1352.14 216.484 1345.81 222.505C1323.34 243.874 1301.1 265.402 1278.44 286.637C1264.01 300.172 1248.98 313.228 1234.24 326.523C1228 332.119 1220.72 337.181 1215.96 343.575C1212.94 347.652 1213.7 353.727 1212.75 358.922C1219.71 359.535 1227.53 362.093 1233.48 360.281C1240.79 358.016 1246.15 351.595 1253.05 347.892C1290.61 327.855 1328.95 308.832 1365.85 287.97C1385.38 276.939 1402.52 262.844 1423.13 252.054C1400.09 275.314 1376.05 297.908 1354.22 321.941C1318.93 360.761 1278.51 395.265 1235.06 427.371C1223.68 435.763 1212.06 444.396 1198.92 450.418C1187.32 455.746 1180.77 462.967 1185.59 472.186C1191.1 482.683 1203.52 477.195 1211.87 474.051C1244.23 461.874 1276.11 448.739 1308.19 436.03C1311.43 434.751 1314.87 433.845 1318.24 432.833C1323.06 431.394 1327.91 430.062 1332.76 428.676C1329.2 432.38 1326.21 436.643 1322.02 439.707C1306.39 451.137 1289.5 461.421 1274.69 473.544C1228.03 511.672 1176.74 544.577 1121.44 573.139C1120.56 573.592 1119.83 574.445 1118.92 574.685C1107.92 577.562 1097.46 582.945 1104.36 593.069C1107.14 597.146 1122.07 598.291 1129.92 596.346C1160.6 588.726 1190.69 579.321 1221.04 570.582C1221.64 570.928 1222.36 571.248 1223.12 571.594ZM20.8141 877.946C20.8141 885.033 20.4045 892.147 21.0032 899.208C21.2552 902.299 23.4922 905.256 24.847 908.293C28.2498 906.268 31.9994 904.537 35.0241 902.165C50.0848 890.309 64.9879 878.266 79.9226 866.276C83.2309 863.638 86.413 860.867 89.6268 858.176C85.4048 856.364 81.1827 854.579 76.9922 852.741C74.3771 851.595 71.7935 850.396 69.2099 849.224C77.7485 844.135 88.9336 833.318 94.3214 835.103C107.933 839.579 114.77 833.451 123.466 828.628C136.542 821.408 149.681 814.214 162.441 806.62C166.506 804.196 169.499 800.519 172.965 797.428C168.396 796.362 163.828 795.243 159.227 794.231C156.455 793.618 153.65 793.112 150.878 792.579C152.516 790.501 153.619 787.65 155.919 786.478C172.461 778.058 189.38 770.171 205.827 761.645C210.207 759.381 213.358 755.411 217.044 752.24C211.373 751.574 204.945 749.096 200.124 750.508C164.71 760.766 127.342 768.36 94.9516 783.467C52.5423 803.13 18.262 831.239 20.8141 877.946Z" fill="url(#paint0_linear_3_5)"/>
<path d="M1039.5 147.82C1031.84 163.327 1027.3 176.543 1019.27 187.973C994.502 223.329 969.233 258.473 942.514 292.737C930.037 308.723 913.149 322.205 899.38 337.525C893.898 343.627 891.409 351.62 887.534 358.76C896.072 360.306 904.579 361.958 913.149 363.29C915.638 363.69 918.348 363.157 921.971 365.208C906.249 371.203 890.59 377.331 874.804 383.193C838.035 396.835 802.085 412.555 764.181 423.425C703.97 440.691 644.294 460.807 579.388 463.231C575.103 463.391 568.455 468.16 567.321 471.784C556.041 507.274 542.241 541.884 515.648 571.459C487.008 603.298 453.074 630.449 411.137 649.872C393.556 658.025 376.416 666.791 357.164 676.196C377.298 652.51 397.809 632.5 412.839 609.879C443.748 563.359 461.045 513.802 445.701 459.581C444.126 454.013 442.393 448.151 442.897 442.582C443.243 438.799 446.268 433.55 449.955 431.845C484.865 415.912 521.288 402.163 555.127 384.765C601.003 361.185 645.554 335.687 689.476 309.549C711.847 296.254 731.98 280.161 752.334 264.628C791.656 234.653 830.946 204.599 869.228 173.665C886.809 159.464 901.964 143.131 918.222 127.758C929.344 117.287 940.53 106.869 951.62 96.3711C974.369 74.7629 997.401 53.3678 1019.65 31.3865C1030.17 20.9954 1039.09 9.45859 1051.85 0C1032.22 37.488 1013.94 75.5355 992.517 112.278C973.455 145.023 950.518 176.17 930.416 208.489C927.517 213.178 930.731 220.585 931.14 226.713C938.923 225.834 949.541 227.379 953.983 223.649C981.931 200.202 1008.59 175.53 1039.5 147.82Z" fill="url(#paint1_linear_3_5)"/>
<defs>
<linearGradient id="paint0_linear_3_5" x1="1079.29" y1="65.4377" x2="520.114" y2="1293.95" gradientUnits="userSpaceOnUse">
<stop stop-color="#292929"/>
<stop offset="0.177039" stop-color="#1B1B1B" stop-opacity="0.8"/>
<stop offset="0.374932" stop-color="#131313" stop-opacity="0.66"/>
<stop offset="1" stop-color="#141414" stop-opacity="0"/>
</linearGradient>
<linearGradient id="paint1_linear_3_5" x1="869.386" y1="-15.8585" x2="562.446" y2="600.926" gradientUnits="userSpaceOnUse">
<stop stop-color="#292929"/>
<stop offset="0.177039" stop-color="#1B1B1B" stop-opacity="0.8"/>
<stop offset="0.374932" stop-color="#131313" stop-opacity="0.66"/>
<stop offset="1" stop-color="#141414" stop-opacity="0"/>
</linearGradient>
</defs>
</svg>
