<svg width="1105" height="1025" viewBox="0 0 1105 1025" fill="none" xmlns="http://www.w3.org/2000/svg">
<path d="M923.349 431.505C916.475 435.106 909.411 438.485 902.775 442.367C894.64 447.134 887.219 452.846 878.822 457.231C855.251 469.5 831.417 481.388 807.537 493.194C800.805 496.513 792.885 498.324 786.677 502.185C783.323 504.257 780.873 509.266 781.087 512.806C781.206 514.716 788.08 518.136 791.434 517.774C806.086 516.245 820.595 513.59 836.293 512.826C810.938 524.15 785.892 536.077 760.061 546.577C746.455 552.108 731.209 554.703 717.127 559.51C713.322 560.817 711.015 565.303 708.041 568.34C711.895 570.895 715.486 575.239 719.649 575.662C729.948 576.728 740.533 576.004 748.786 576.004C726.475 587.79 699.193 594.81 671.007 599.376C651.907 602.473 651.075 603.298 661.612 616.835C661.85 617.136 659.875 619.47 658.758 619.55C649.767 620.334 640.633 620.355 631.761 621.622C627.979 622.165 622.128 624.84 621.795 627.053C621.343 629.929 624.506 634.495 627.717 636.305C644.486 645.718 662.326 653.784 678.69 663.66C692.319 671.866 704.259 682.024 717.199 691.095C727.76 698.517 738.868 705.376 749.333 712.879C754.4 716.519 758.538 721.085 763.034 725.269C797.666 757.371 825.043 793.254 842.24 834.407C843.81 838.148 844.714 842.11 845.617 846.013C846.735 850.9 847.497 855.868 848.424 860.796C844.452 856.834 840.884 852.509 836.436 848.989C821.903 837.484 807.251 826.06 792.124 815.138C789.912 813.549 783.799 813.609 781.349 815.098C779.137 816.465 778.28 820.951 778.828 823.787C786.391 862.908 788.08 901.969 776.497 940.709C770.17 961.869 762.368 982.727 755.137 1003.69C754.637 1005.17 753.329 1006.46 752.259 1008.03C747.193 984.074 743.078 960.481 736.941 937.29C733.468 924.115 727.165 911.403 720.957 898.892C719.506 895.955 713.488 893.803 709.159 893.119C707.589 892.878 703.284 897.846 702.88 900.702C697.885 936.063 681.687 968.104 661.469 998.697C648.744 1017.99 633.735 1036.19 619.702 1054.88C618.893 1055.94 617.751 1056.83 618.845 1055.76C620.915 1030.18 623.198 1002.72 625.386 975.265C626.076 966.676 627.575 958.007 626.623 949.539C626.243 946.059 620.344 943.042 616.966 939.804C613.565 942.539 609.093 944.792 606.976 948.111C590.493 973.897 572.106 998.496 546.537 1018.63C540.4 1023.48 532.884 1027.1 526.081 1031.22C529.53 1021.79 533.764 1011.87 536.737 1001.69C540.043 990.431 542.85 978.986 544.563 967.48C545.11 963.84 541.447 959.757 539.734 955.875C534.858 958.49 528.555 960.219 525.415 963.9C518.565 971.905 513.499 980.977 507.386 989.465C504.175 993.91 500.845 994.835 495.303 990.571C480.603 979.307 461.598 976.21 442.879 974.661C438.146 974.259 431.391 981.037 427.49 985.684C419.736 994.896 413.337 1004.91 406.606 1014.29C407.391 995.922 408.604 978.603 408.747 961.285C408.842 950.203 404.323 947.326 391.074 948.111C385.984 948.412 380.894 948.976 375.827 949.619C373.473 949.921 371.189 950.645 368.858 951.168C370 949.137 370.5 946.401 372.379 945.154C381.512 939.16 391.122 933.669 400.35 927.776C404.418 925.181 410.34 922.445 411.125 919.066C411.696 916.552 406.011 911.845 401.92 910.015C395.569 907.159 397.044 904.826 401.04 902.05C415.074 892.355 426.895 894.527 433.603 908.506C436.695 914.923 438.288 921.882 440.358 928.641C443.307 938.255 449.135 941.312 457.674 935.238C472.397 924.759 487.215 913.776 498.894 900.964C532.337 864.236 542.47 821.856 535.833 776.398C534.692 768.554 531.98 760.649 528.317 753.368C526.628 750.029 520.848 748.158 516.924 745.644C514.664 748.943 510.288 752.322 510.478 755.54C511.905 782.191 507.885 808.017 495.541 832.617C491.925 839.797 486.906 846.696 481.15 852.791C479.39 854.662 472.135 854.843 468.972 853.394C449.848 844.524 429.94 838.168 408.057 836.338C398.733 835.553 389.552 832.858 380.299 832.818C376.089 832.798 370.523 836.318 367.883 839.576C359.558 849.754 352.327 860.575 344.05 872C346.048 855.969 348.926 841.929 349.306 827.83C349.782 809.425 339.388 804.156 318.861 810.813C316.435 811.598 313.676 811.718 311.083 812.161C312.082 809.787 312.248 806.428 314.246 805.201C322.072 800.314 330.754 796.412 338.555 791.504C342.623 788.929 345.501 785.007 348.926 781.708C345.429 779.154 341.719 776.781 338.555 773.965C337.509 773.019 337.199 769.761 337.628 769.6C345.239 766.683 352.85 763.586 360.89 761.957C362.151 761.695 366.028 768.313 367.598 772.074C371.094 780.401 374.139 788.869 376.874 797.397C379.181 804.658 386.198 807.253 392.216 804.377C406.939 797.357 423.137 791.806 431.248 777.143C439.858 761.595 439.906 746.831 433.175 730.881C427.894 718.39 416.929 710.465 406.439 701.756C383.058 682.346 352.708 674.843 322.69 667.683C271.86 655.574 219.698 650.948 166.989 654.629C133.285 656.982 99.7237 661.387 69.0403 674.481C58.2178 679.107 47.6807 684.8 38.6659 691.578C33.3618 695.561 29.5799 702.399 28.3193 708.413C26.9159 715.192 23.1816 715.212 19.7327 711.632C12.6683 704.33 2.46431 696.325 1.75074 688.098C-0.22347 665.631 -3.81514 643.727 12.8586 621.28C34.6224 591.974 61.7856 571.377 100.057 561.622C124.437 555.407 149.84 552.108 174.649 546.999C241.486 533.201 304.922 512.524 359.13 475.776C377.588 463.265 393.429 447.737 409.008 432.511C427.728 414.227 439.406 392.424 447.184 369.172C449.396 362.555 453.963 358.632 462.217 356.963C490.712 351.19 519.469 346.021 547.393 338.619C574.2 331.519 600.649 322.971 626.243 313.175C674.028 294.851 721.694 276.186 768.219 255.71C804.801 239.618 839.552 220.53 875.183 202.911C890.121 195.529 905.534 188.811 920.233 181.127C937.049 172.358 953.771 163.347 969.755 153.551C1011.28 128.087 1052.41 102.12 1093.7 76.3539C1094.34 75.9516 1094.94 75.4688 1095.68 75.2476C1098.77 74.2821 1101.88 73.377 1105 72.4719C1103.79 74.8654 1103.12 77.6814 1101.24 79.6123C1095.32 85.6666 1088.73 91.2583 1082.81 97.2924C1078.76 101.396 1075.39 105.962 1071.7 110.326C1063.52 119.981 1055.6 129.817 1047.01 139.21C1042.04 144.641 1035.97 149.347 1030.46 154.436C1025.58 158.921 1020.75 163.427 1015.97 167.973C999.011 184.104 982.218 200.356 965.116 216.387C954.223 226.605 942.877 236.461 931.745 246.497C927.036 250.721 921.541 254.543 917.95 259.37C915.666 262.448 916.237 267.034 915.524 270.956C920.78 271.419 926.679 273.349 931.174 271.982C936.693 270.272 940.736 265.425 945.945 262.629C974.298 247.503 1003.24 233.142 1031.1 217.393C1045.84 209.065 1058.78 198.425 1074.34 190.279C1056.95 207.838 1038.8 224.895 1022.32 243.038C995.681 272.344 965.164 298.391 932.364 322.629C923.777 328.964 915 335.481 905.082 340.027C896.328 344.05 891.381 349.501 895.02 356.46C899.183 364.385 908.554 360.242 914.857 357.868C939.285 348.676 963.357 338.76 987.57 329.166C990.02 328.2 992.613 327.516 995.158 326.752C998.797 325.666 1002.46 324.66 1006.12 323.614C1003.44 326.41 1001.18 329.628 998.012 331.941C986.215 340.57 973.465 348.334 962.286 357.486C927.06 386.269 888.337 411.11 846.593 432.672C845.927 433.014 845.38 433.657 844.69 433.838C836.389 436.011 828.492 440.074 833.701 447.717C835.794 450.794 847.068 451.659 852.991 450.191C876.158 444.438 898.874 437.338 921.779 430.741C922.231 431.002 922.778 431.244 923.349 431.505ZM15.7129 662.775C15.7129 668.125 15.4037 673.496 15.8556 678.826C16.0459 681.159 17.7346 683.392 18.7574 685.685C21.3262 684.156 24.1568 682.849 26.4402 681.058C37.8098 672.108 49.0604 663.016 60.3348 653.965C62.8323 651.974 65.2345 649.882 67.6606 647.85C64.4734 646.483 61.2861 645.135 58.1226 643.747C56.1484 642.882 54.198 641.977 52.2476 641.092C58.6935 637.25 67.1373 629.084 71.2047 630.432C81.4801 633.811 86.6416 629.185 93.2064 625.544C103.077 620.093 112.996 614.662 122.629 608.93C125.698 607.1 127.957 604.324 130.574 601.991C127.125 601.186 123.676 600.341 120.203 599.577C118.11 599.114 115.993 598.732 113.9 598.33C115.137 596.761 115.969 594.609 117.706 593.724C130.193 587.368 142.966 581.414 155.382 574.978C158.688 573.268 161.067 570.271 163.85 567.877C159.568 567.375 154.716 565.504 151.077 566.57C124.342 574.314 96.1321 580.046 71.6804 591.451C39.665 606.295 13.7863 627.515 15.7129 662.775Z" fill="url(#paint0_linear_73_17)"/>
<path d="M784.731 111.592C778.951 123.298 775.526 133.275 769.46 141.904C750.765 168.595 731.689 195.125 711.519 220.991C702.099 233.06 689.35 243.237 678.956 254.803C674.817 259.409 672.938 265.443 670.013 270.834C676.458 272 682.88 273.247 689.35 274.253C691.229 274.555 693.275 274.153 696.01 275.701C684.141 280.227 672.32 284.853 660.403 289.278C632.645 299.576 605.506 311.444 576.892 319.65C531.437 332.684 486.387 347.87 437.389 349.7C434.154 349.821 429.135 353.421 428.279 356.157C419.764 382.949 409.346 409.077 389.271 431.403C367.649 455.439 342.032 475.935 310.374 490.598C297.101 496.753 284.162 503.371 269.629 510.471C284.828 492.589 300.312 477.484 311.658 460.407C334.992 425.288 348.05 387.877 336.467 346.945C335.277 342.741 333.969 338.316 334.35 334.112C334.611 331.256 336.895 327.293 339.678 326.006C366.032 313.978 393.528 303.599 419.074 290.465C453.706 272.664 487.339 253.415 520.496 233.683C537.384 223.646 552.583 211.498 567.948 199.771C597.633 177.143 627.294 154.455 656.193 131.102C669.466 120.382 680.907 108.052 693.18 96.4462C701.576 88.5414 710.02 80.6769 718.393 72.752C735.566 56.4396 752.953 40.2881 769.746 23.6942C777.69 15.8498 784.421 7.14044 794.055 0C779.236 28.3003 765.441 57.0229 749.266 84.76C734.876 109.48 717.56 132.993 702.385 157.391C700.197 160.931 702.623 166.523 702.932 171.149C708.807 170.485 716.823 171.652 720.177 168.836C741.274 151.136 761.397 132.51 784.731 111.592Z" fill="url(#paint1_linear_73_17)"/>
<defs>
<linearGradient id="paint0_linear_73_17" x1="814.769" y1="49.3999" x2="392.642" y2="976.825" gradientUnits="userSpaceOnUse">
<stop stop-color="#55367D"/>
<stop offset="0.177039" stop-color="#35234E" stop-opacity="0.8"/>
<stop offset="0.405695" stop-color="#200D39" stop-opacity="0.66"/>
<stop offset="1" stop-color="#06000D" stop-opacity="0"/>
</linearGradient>
<linearGradient id="paint1_linear_73_17" x1="656.313" y1="-11.9718" x2="424.599" y2="453.648" gradientUnits="userSpaceOnUse">
<stop stop-color="#55367D"/>
<stop offset="0.177039" stop-color="#35234E" stop-opacity="0.8"/>
<stop offset="0.405695" stop-color="#200D39" stop-opacity="0.66"/>
<stop offset="1" stop-color="#06000D" stop-opacity="0"/>
</linearGradient>
</defs>
</svg>
